<?xml version="1.0" encoding="iso-8859-1"?>
<!-- Generator: Adobe Illustrator 19.0.0, SVG Export Plug-In . SVG Version: 6.00 Build 0)  -->
<svg version="1.1" id="Layer_1" xmlns="http://www.w3.org/2000/svg" xmlns:xlink="http://www.w3.org/1999/xlink" x="0px" y="0px"
	 viewBox="0 0 420 420" style="enable-background:new 0 0 420 420;" xml:space="preserve">
<g id="XMLID_356_">
	<circle id="XMLID_1254_" style="fill:#61ACD2;" cx="210" cy="210" r="200"/>
	<path id="XMLID_1250_" style="fill:#EFEFEF;" d="M210,50c88.224,0,160,71.776,160,160s-71.776,160-160,160S50,298.224,50,210
		S121.776,50,210,50z"/>
	<polygon id="XMLID_1246_" style="fill:#F4A026;" points="113.448,210 204,287.003 198,239 307,239 307,179 198,179 204,132.997 	
		"/>
	<g id="XMLID_814_">
		<path id="XMLID_817_" d="M210,0C94.206,0,0,94.206,0,210s94.206,210,210,210s210-94.206,210-210S325.794,0,210,0z M210,400
			c-104.767,0-190-85.233-190-190S105.233,20,210,20s190,85.233,190,190S314.767,400,210,400z"/>
		<path id="XMLID_832_" d="M210,40c-93.738,0-170,76.262-170,170s76.262,170,170,170s170-76.262,170-170S303.738,40,210,40z
			 M210,360c-82.71,0-150-67.29-150-150S127.29,60,210,60s150,67.29,150,150S292.71,360,210,360z"/>
		<path id="XMLID_835_" d="M307,169h-97.611l4.527-34.71c0.535-4.1-1.508-8.105-5.14-10.08c-3.631-1.973-8.104-1.51-11.254,1.168
			l-90.552,77.003c-2.234,1.9-3.522,4.685-3.522,7.618s1.288,5.718,3.522,7.618l90.552,77.003c1.85,1.573,4.155,2.382,6.48,2.382
			c1.624,0,3.258-0.395,4.75-1.201c3.628-1.96,5.682-5.947,5.17-10.039L209.328,249H307c5.523,0,10-4.477,10-10v-60
			C317,173.477,312.523,169,307,169z M297,229h-99c-2.868,0-5.599,1.231-7.497,3.382c-1.898,2.15-2.782,5.012-2.426,7.858
			l2.811,22.486L128.884,210l61.847-52.594l-2.647,20.3c-0.372,2.854,0.503,5.729,2.401,7.892C192.384,187.76,195.123,189,198,189
			h99V229z"/>
	</g>
</g>
<g>
</g>
<g>
</g>
<g>
</g>
<g>
</g>
<g>
</g>
<g>
</g>
<g>
</g>
<g>
</g>
<g>
</g>
<g>
</g>
<g>
</g>
<g>
</g>
<g>
</g>
<g>
</g>
<g>
</g>
</svg>
