<?xml version="1.0" encoding="iso-8859-1"?>
<!-- Generator: Adobe Illustrator 19.0.0, SVG Export Plug-In . SVG Version: 6.00 Build 0)  -->
<svg version="1.1" id="Layer_1" xmlns="http://www.w3.org/2000/svg" xmlns:xlink="http://www.w3.org/1999/xlink" x="0px" y="0px"
	 viewBox="0 0 385.3 385.3" style="enable-background:new 0 0 385.3 385.3;" xml:space="preserve">
<g id="XMLID_130_">
	<rect id="XMLID_1333_" x="10.568" y="62.977" style="fill:#EFEFEF;" width="365" height="260"/>
	<polygon id="XMLID_1329_" style="fill:#EFEFEF;" points="10.568,322.65 193.068,167.65 375.568,322.65 	"/>
	<polygon id="XMLID_1325_" style="fill:#EFEFEF;" points="375.568,62.65 193.068,217.65 10.568,62.65 	"/>
	<g id="XMLID_8_">
		<path id="XMLID_154_" d="M384.933,59.202c-1.446-3.936-5.171-6.552-9.364-6.552h-365c-4.193,0-7.941,2.616-9.387,6.552
			c-0.441,1.2-0.92,2.445-0.892,3.673C0.289,62.909,0,62.942,0,62.976v260c0,5.522,5.045,9.674,10.568,9.674h365
			c5.522,0,9.432-4.151,9.432-9.674v-260c0-0.033,0.28-0.065,0.279-0.099C385.308,61.649,385.374,60.403,384.933,59.202z
			 M347.963,72.65L193.068,204.204L38.174,72.65H347.963z M20,84.263L147.617,192.65L20,301.037V84.263z M37.79,312.65
			l125.843-106.88l22.962,19.502c1.867,1.585,4.17,2.378,6.474,2.378s4.606-0.793,6.474-2.378l22.962-19.502l125.843,106.88H37.79z
			 M365,301.037L237.384,192.65L365,84.263V301.037z"/>
	</g>
</g>
<g>
</g>
<g>
</g>
<g>
</g>
<g>
</g>
<g>
</g>
<g>
</g>
<g>
</g>
<g>
</g>
<g>
</g>
<g>
</g>
<g>
</g>
<g>
</g>
<g>
</g>
<g>
</g>
<g>
</g>
</svg>
